<mxfile host="app.diagrams.net" agent="Mozilla/5.0 (Windows NT 10.0; Win64; x64) AppleWebKit/537.36 (KHTML, like Gecko) Chrome/138.0.0.0 Safari/537.36 Edg/138.0.0.0" version="27.0.4" pages="2">
  <diagram name="Arch" id="rIj0sB-8U3w1b-v0gW_f">
    <mxGraphModel dx="1702" dy="1234" grid="0" gridSize="10" guides="1" tooltips="1" connect="1" arrows="1" fold="1" page="0" pageScale="1" pageWidth="850" pageHeight="1100" math="1" shadow="0">
      <root>
        <mxCell id="0" />
        <mxCell id="1" parent="0" />
        <mxCell id="n0bD6nwZr_wSMpqqiZz7-5" value="" style="rounded=0;whiteSpace=wrap;html=1;fillColor=none;strokeColor=default;fontFamily=Comic Sans MS;" parent="1" vertex="1">
          <mxGeometry x="590" y="290" width="300" height="430" as="geometry" />
        </mxCell>
        <mxCell id="4ZXLskvtB0-m_67RsiaI-1" value="" style="rounded=0;whiteSpace=wrap;html=1;fillColor=none;strokeColor=default;dashed=1;dashPattern=8 8;fontFamily=Comic Sans MS;" parent="1" vertex="1">
          <mxGeometry x="602" y="372" width="140" height="320" as="geometry" />
        </mxCell>
        <mxCell id="n0bD6nwZr_wSMpqqiZz7-39" value="scheduler" style="rounded=0;whiteSpace=wrap;html=1;sketch=1;curveFitting=1;jiggle=2;fillColor=#fad9d5;strokeColor=#ae4132;fontFamily=Comic Sans MS;" parent="1" vertex="1">
          <mxGeometry x="622" y="389.5" width="100" height="60" as="geometry" />
        </mxCell>
        <mxCell id="n0bD6nwZr_wSMpqqiZz7-40" value="cache manager" style="rounded=0;whiteSpace=wrap;html=1;sketch=1;curveFitting=1;jiggle=2;fillColor=#fad9d5;strokeColor=#ae4132;fontFamily=Comic Sans MS;" parent="1" vertex="1">
          <mxGeometry x="622" y="602" width="100" height="60" as="geometry" />
        </mxCell>
        <mxCell id="n0bD6nwZr_wSMpqqiZz7-42" value="mobile manager" style="rounded=0;whiteSpace=wrap;html=1;sketch=1;curveFitting=1;jiggle=2;fillColor=#fad9d5;strokeColor=#ae4132;fontFamily=Comic Sans MS;" parent="1" vertex="1">
          <mxGeometry x="622" y="492" width="100" height="60" as="geometry" />
        </mxCell>
        <mxCell id="n0bD6nwZr_wSMpqqiZz7-3" value="？" style="rounded=0;whiteSpace=wrap;html=1;fillColor=none;strokeColor=default;dashed=1;dashPattern=8 8;fontFamily=Comic Sans MS;fontSize=48;" parent="1" vertex="1">
          <mxGeometry x="180" y="363" width="390" height="357" as="geometry" />
        </mxCell>
        <mxCell id="n0bD6nwZr_wSMpqqiZz7-1" value="" style="rounded=0;whiteSpace=wrap;html=1;fillColor=none;fontFamily=Comic Sans MS;" parent="1" vertex="1">
          <mxGeometry x="920" y="290" width="200" height="240" as="geometry" />
        </mxCell>
        <mxCell id="n0bD6nwZr_wSMpqqiZz7-2" value="" style="rounded=0;whiteSpace=wrap;html=1;fillColor=none;strokeColor=default;dashed=1;dashPattern=8 8;fontFamily=Comic Sans MS;" parent="1" vertex="1">
          <mxGeometry x="935" y="305" width="175" height="55" as="geometry" />
        </mxCell>
        <mxCell id="n0bD6nwZr_wSMpqqiZz7-4" value="retri" style="text;html=1;align=center;verticalAlign=middle;whiteSpace=wrap;rounded=0;fontFamily=Comic Sans MS;" parent="1" vertex="1">
          <mxGeometry x="180" y="690" width="40" height="30" as="geometry" />
        </mxCell>
        <mxCell id="n0bD6nwZr_wSMpqqiZz7-6" value="control plane" style="text;html=1;align=center;verticalAlign=middle;whiteSpace=wrap;rounded=0;fontFamily=Comic Sans MS;" parent="1" vertex="1">
          <mxGeometry x="590" y="690" width="80" height="30" as="geometry" />
        </mxCell>
        <mxCell id="n0bD6nwZr_wSMpqqiZz7-7" value="" style="rounded=0;whiteSpace=wrap;html=1;fillColor=none;strokeColor=default;dashed=1;dashPattern=8 8;fontFamily=Comic Sans MS;" parent="1" vertex="1">
          <mxGeometry x="920" y="560" width="640" height="160" as="geometry" />
        </mxCell>
        <mxCell id="n0bD6nwZr_wSMpqqiZz7-8" value="storage" style="text;html=1;align=center;verticalAlign=middle;whiteSpace=wrap;rounded=0;fontFamily=Comic Sans MS;" parent="1" vertex="1">
          <mxGeometry x="920" y="690" width="60" height="30" as="geometry" />
        </mxCell>
        <mxCell id="n0bD6nwZr_wSMpqqiZz7-9" value="" style="shape=cylinder3;whiteSpace=wrap;html=1;boundedLbl=1;backgroundOutline=1;size=5.60003662109375;sketch=1;curveFitting=1;jiggle=2;fillColor=#b0e3e6;strokeColor=#0e8088;fontFamily=Comic Sans MS;" parent="1" vertex="1">
          <mxGeometry x="965" y="317.5" width="30" height="30" as="geometry" />
        </mxCell>
        <mxCell id="n0bD6nwZr_wSMpqqiZz7-10" value="" style="shape=cylinder3;whiteSpace=wrap;html=1;boundedLbl=1;backgroundOutline=1;size=5.60003662109375;sketch=1;curveFitting=1;jiggle=2;fillColor=#b0e3e6;strokeColor=#0e8088;fontFamily=Comic Sans MS;" parent="1" vertex="1">
          <mxGeometry x="1070" y="317.5" width="30" height="30" as="geometry" />
        </mxCell>
        <mxCell id="n0bD6nwZr_wSMpqqiZz7-11" value="" style="shape=cylinder3;whiteSpace=wrap;html=1;boundedLbl=1;backgroundOutline=1;size=5.60003662109375;sketch=1;curveFitting=1;jiggle=2;fillColor=#b0e3e6;strokeColor=#0e8088;fontFamily=Comic Sans MS;" parent="1" vertex="1">
          <mxGeometry x="1005" y="317.5" width="30" height="30" as="geometry" />
        </mxCell>
        <mxCell id="n0bD6nwZr_wSMpqqiZz7-12" value="Pods" style="text;html=1;align=center;verticalAlign=middle;whiteSpace=wrap;rounded=0;direction=south;flipV=1;flipH=0;textDirection=vertical-lr;fontFamily=Comic Sans MS;" parent="1" vertex="1">
          <mxGeometry x="935" y="305" width="30" height="55" as="geometry" />
        </mxCell>
        <mxCell id="n0bD6nwZr_wSMpqqiZz7-13" value="&lt;font style=&quot;font-size: 23px;&quot;&gt;&lt;b&gt;...&lt;/b&gt;&lt;/font&gt;" style="text;html=1;align=center;verticalAlign=middle;whiteSpace=wrap;rounded=0;fontFamily=Comic Sans MS;" parent="1" vertex="1">
          <mxGeometry x="1020" y="317.5" width="60" height="30" as="geometry" />
        </mxCell>
        <mxCell id="n0bD6nwZr_wSMpqqiZz7-14" value="wroker" style="text;html=1;align=center;verticalAlign=middle;whiteSpace=wrap;rounded=0;fontFamily=Comic Sans MS;" parent="1" vertex="1">
          <mxGeometry x="920" y="500" width="50" height="30" as="geometry" />
        </mxCell>
        <mxCell id="n0bD6nwZr_wSMpqqiZz7-15" value="kubelet &amp;amp; kube-proxy" style="rounded=0;whiteSpace=wrap;html=1;sketch=1;curveFitting=1;jiggle=2;fillColor=#b0e3e6;strokeColor=#0e8088;fontFamily=Comic Sans MS;" parent="1" vertex="1">
          <mxGeometry x="935" y="380" width="175" height="40" as="geometry" />
        </mxCell>
        <mxCell id="n0bD6nwZr_wSMpqqiZz7-16" style="edgeStyle=orthogonalEdgeStyle;rounded=0;orthogonalLoop=1;jettySize=auto;html=1;fontSize=12;startSize=8;endSize=8;sketch=1;curveFitting=1;jiggle=2;entryX=0.5;entryY=1;entryDx=0;entryDy=0;startArrow=classic;startFill=0;endArrow=none;fontFamily=Comic Sans MS;" parent="1" source="n0bD6nwZr_wSMpqqiZz7-17" target="n0bD6nwZr_wSMpqqiZz7-35" edge="1">
          <mxGeometry relative="1" as="geometry">
            <mxPoint x="1620" y="460" as="targetPoint" />
          </mxGeometry>
        </mxCell>
        <mxCell id="n0bD6nwZr_wSMpqqiZz7-17" value="kube-api" style="shape=hexagon;perimeter=hexagonPerimeter2;whiteSpace=wrap;html=1;fixedSize=1;sketch=1;curveFitting=1;jiggle=2;fillColor=#b0e3e6;strokeColor=#0e8088;fontFamily=Comic Sans MS;" parent="1" vertex="1">
          <mxGeometry x="760" y="407.5" width="90" height="80" as="geometry" />
        </mxCell>
        <mxCell id="n0bD6nwZr_wSMpqqiZz7-18" value="" style="rounded=0;whiteSpace=wrap;html=1;fillColor=none;fontFamily=Comic Sans MS;" parent="1" vertex="1">
          <mxGeometry x="1140" y="290" width="200" height="240" as="geometry" />
        </mxCell>
        <mxCell id="n0bD6nwZr_wSMpqqiZz7-19" value="" style="rounded=0;whiteSpace=wrap;html=1;fillColor=none;strokeColor=default;dashed=1;dashPattern=8 8;fontFamily=Comic Sans MS;" parent="1" vertex="1">
          <mxGeometry x="1155" y="305" width="175" height="55" as="geometry" />
        </mxCell>
        <mxCell id="n0bD6nwZr_wSMpqqiZz7-20" value="" style="shape=cylinder3;whiteSpace=wrap;html=1;boundedLbl=1;backgroundOutline=1;size=5.60003662109375;sketch=1;curveFitting=1;jiggle=2;fillColor=#b0e3e6;strokeColor=#0e8088;fontFamily=Comic Sans MS;" parent="1" vertex="1">
          <mxGeometry x="1185" y="317.5" width="30" height="30" as="geometry" />
        </mxCell>
        <mxCell id="n0bD6nwZr_wSMpqqiZz7-21" value="" style="shape=cylinder3;whiteSpace=wrap;html=1;boundedLbl=1;backgroundOutline=1;size=5.60003662109375;sketch=1;curveFitting=1;jiggle=2;fillColor=#b0e3e6;strokeColor=#0e8088;fontFamily=Comic Sans MS;" parent="1" vertex="1">
          <mxGeometry x="1290" y="317.5" width="30" height="30" as="geometry" />
        </mxCell>
        <mxCell id="n0bD6nwZr_wSMpqqiZz7-22" value="" style="shape=cylinder3;whiteSpace=wrap;html=1;boundedLbl=1;backgroundOutline=1;size=5.60003662109375;sketch=1;curveFitting=1;jiggle=2;fillColor=#b0e3e6;strokeColor=#0e8088;fontFamily=Comic Sans MS;" parent="1" vertex="1">
          <mxGeometry x="1225" y="317.5" width="30" height="30" as="geometry" />
        </mxCell>
        <mxCell id="n0bD6nwZr_wSMpqqiZz7-23" value="Pods" style="text;html=1;align=center;verticalAlign=middle;whiteSpace=wrap;rounded=0;direction=south;flipV=1;flipH=0;textDirection=vertical-lr;fontFamily=Comic Sans MS;" parent="1" vertex="1">
          <mxGeometry x="1155" y="305" width="30" height="55" as="geometry" />
        </mxCell>
        <mxCell id="n0bD6nwZr_wSMpqqiZz7-24" value="&lt;font style=&quot;font-size: 23px;&quot;&gt;&lt;b&gt;...&lt;/b&gt;&lt;/font&gt;" style="text;html=1;align=center;verticalAlign=middle;whiteSpace=wrap;rounded=0;fontFamily=Comic Sans MS;" parent="1" vertex="1">
          <mxGeometry x="1240" y="317.5" width="60" height="30" as="geometry" />
        </mxCell>
        <mxCell id="n0bD6nwZr_wSMpqqiZz7-25" value="wroker" style="text;html=1;align=center;verticalAlign=middle;whiteSpace=wrap;rounded=0;fontFamily=Comic Sans MS;" parent="1" vertex="1">
          <mxGeometry x="1140" y="500" width="50" height="30" as="geometry" />
        </mxCell>
        <mxCell id="n0bD6nwZr_wSMpqqiZz7-26" value="kubelet &amp;amp; kube-proxy" style="rounded=0;whiteSpace=wrap;html=1;sketch=1;curveFitting=1;jiggle=2;fillColor=#b0e3e6;strokeColor=#0e8088;fontFamily=Comic Sans MS;" parent="1" vertex="1">
          <mxGeometry x="1155" y="380" width="175" height="40" as="geometry" />
        </mxCell>
        <mxCell id="n0bD6nwZr_wSMpqqiZz7-27" value="" style="rounded=0;whiteSpace=wrap;html=1;fillColor=none;strokeColor=light-dark(#000000, #f96c30);fontFamily=Comic Sans MS;" parent="1" vertex="1">
          <mxGeometry x="1360" y="290" width="200" height="240" as="geometry" />
        </mxCell>
        <mxCell id="n0bD6nwZr_wSMpqqiZz7-28" value="" style="rounded=0;whiteSpace=wrap;html=1;fillColor=none;strokeColor=default;dashed=1;dashPattern=8 8;fontFamily=Comic Sans MS;" parent="1" vertex="1">
          <mxGeometry x="1375" y="305" width="175" height="55" as="geometry" />
        </mxCell>
        <mxCell id="n0bD6nwZr_wSMpqqiZz7-29" value="" style="shape=cylinder3;whiteSpace=wrap;html=1;boundedLbl=1;backgroundOutline=1;size=5.60003662109375;sketch=1;curveFitting=1;jiggle=2;fillColor=#b0e3e6;strokeColor=#0e8088;fontFamily=Comic Sans MS;" parent="1" vertex="1">
          <mxGeometry x="1405" y="317.5" width="30" height="30" as="geometry" />
        </mxCell>
        <mxCell id="n0bD6nwZr_wSMpqqiZz7-30" value="" style="shape=cylinder3;whiteSpace=wrap;html=1;boundedLbl=1;backgroundOutline=1;size=5.60003662109375;sketch=1;curveFitting=1;jiggle=2;fillColor=#b0e3e6;strokeColor=#0e8088;fontFamily=Comic Sans MS;" parent="1" vertex="1">
          <mxGeometry x="1510" y="317.5" width="30" height="30" as="geometry" />
        </mxCell>
        <mxCell id="n0bD6nwZr_wSMpqqiZz7-31" value="" style="shape=cylinder3;whiteSpace=wrap;html=1;boundedLbl=1;backgroundOutline=1;size=5.60003662109375;sketch=1;curveFitting=1;jiggle=2;fillColor=#b0e3e6;strokeColor=#0e8088;fontFamily=Comic Sans MS;" parent="1" vertex="1">
          <mxGeometry x="1445" y="317.5" width="30" height="30" as="geometry" />
        </mxCell>
        <mxCell id="n0bD6nwZr_wSMpqqiZz7-32" value="Pods" style="text;html=1;align=center;verticalAlign=middle;whiteSpace=wrap;rounded=0;direction=south;flipV=1;flipH=0;textDirection=vertical-lr;fontFamily=Comic Sans MS;" parent="1" vertex="1">
          <mxGeometry x="1375" y="305" width="30" height="55" as="geometry" />
        </mxCell>
        <mxCell id="n0bD6nwZr_wSMpqqiZz7-33" value="&lt;font style=&quot;font-size: 23px;&quot;&gt;&lt;b&gt;...&lt;/b&gt;&lt;/font&gt;" style="text;html=1;align=center;verticalAlign=middle;whiteSpace=wrap;rounded=0;fontFamily=Comic Sans MS;" parent="1" vertex="1">
          <mxGeometry x="1460" y="317.5" width="60" height="30" as="geometry" />
        </mxCell>
        <mxCell id="n0bD6nwZr_wSMpqqiZz7-34" value="mobile worker" style="text;html=1;align=center;verticalAlign=middle;whiteSpace=wrap;rounded=0;fontFamily=Comic Sans MS;" parent="1" vertex="1">
          <mxGeometry x="1360" y="500" width="90" height="30" as="geometry" />
        </mxCell>
        <mxCell id="n0bD6nwZr_wSMpqqiZz7-35" value="mobile core" style="rounded=0;whiteSpace=wrap;html=1;sketch=1;curveFitting=1;jiggle=2;fillColor=#fad9d5;strokeColor=#ae4132;fontFamily=Comic Sans MS;" parent="1" vertex="1">
          <mxGeometry x="1375" y="380" width="175" height="40" as="geometry" />
        </mxCell>
        <mxCell id="n0bD6nwZr_wSMpqqiZz7-36" value="" style="endArrow=none;html=1;rounded=0;fontSize=12;startSize=8;endSize=8;curved=1;entryX=0.5;entryY=1;entryDx=0;entryDy=0;sketch=1;curveFitting=1;jiggle=2;startFill=0;fontFamily=Comic Sans MS;" parent="1" target="n0bD6nwZr_wSMpqqiZz7-26" edge="1">
          <mxGeometry width="50" height="50" relative="1" as="geometry">
            <mxPoint x="1243" y="450" as="sourcePoint" />
            <mxPoint x="1000" y="490" as="targetPoint" />
          </mxGeometry>
        </mxCell>
        <mxCell id="n0bD6nwZr_wSMpqqiZz7-37" value="" style="endArrow=none;html=1;rounded=0;fontSize=12;startSize=8;endSize=8;curved=1;entryX=0.5;entryY=1;entryDx=0;entryDy=0;sketch=1;curveFitting=1;jiggle=2;startFill=0;fontFamily=Comic Sans MS;" parent="1" edge="1">
          <mxGeometry width="50" height="50" relative="1" as="geometry">
            <mxPoint x="1019" y="450" as="sourcePoint" />
            <mxPoint x="1019" y="420" as="targetPoint" />
          </mxGeometry>
        </mxCell>
        <mxCell id="n0bD6nwZr_wSMpqqiZz7-38" style="edgeStyle=none;curved=1;rounded=0;orthogonalLoop=1;jettySize=auto;html=1;entryX=0;entryY=0.25;entryDx=0;entryDy=0;fontSize=12;sketch=1;curveFitting=1;jiggle=2;startArrow=classic;startFill=1;fontFamily=Comic Sans MS;" parent="1" source="n0bD6nwZr_wSMpqqiZz7-39" target="n0bD6nwZr_wSMpqqiZz7-17" edge="1">
          <mxGeometry relative="1" as="geometry" />
        </mxCell>
        <mxCell id="n0bD6nwZr_wSMpqqiZz7-41" style="edgeStyle=none;curved=1;rounded=0;orthogonalLoop=1;jettySize=auto;html=1;fontSize=12;sketch=1;curveFitting=1;jiggle=2;startArrow=classic;startFill=1;fontFamily=Comic Sans MS;" parent="1" source="n0bD6nwZr_wSMpqqiZz7-42" target="n0bD6nwZr_wSMpqqiZz7-17" edge="1">
          <mxGeometry relative="1" as="geometry" />
        </mxCell>
        <mxCell id="n0bD6nwZr_wSMpqqiZz7-43" value="cache loader" style="rounded=0;whiteSpace=wrap;html=1;sketch=1;curveFitting=1;jiggle=2;fillColor=#fad9d5;strokeColor=#ae4132;fontFamily=Comic Sans MS;" parent="1" vertex="1">
          <mxGeometry x="935" y="465" width="175" height="35" as="geometry" />
        </mxCell>
        <mxCell id="n0bD6nwZr_wSMpqqiZz7-44" value="cache loader" style="rounded=0;whiteSpace=wrap;html=1;sketch=1;curveFitting=1;jiggle=2;fillColor=#fad9d5;strokeColor=#ae4132;fontFamily=Comic Sans MS;" parent="1" vertex="1">
          <mxGeometry x="1372.5" y="465" width="175" height="35" as="geometry" />
        </mxCell>
        <mxCell id="n0bD6nwZr_wSMpqqiZz7-45" value="cache loader" style="rounded=0;whiteSpace=wrap;html=1;sketch=1;curveFitting=1;jiggle=2;fillColor=#fad9d5;strokeColor=#ae4132;fontFamily=Comic Sans MS;" parent="1" vertex="1">
          <mxGeometry x="1152.5" y="465" width="175" height="35" as="geometry" />
        </mxCell>
        <mxCell id="n0bD6nwZr_wSMpqqiZz7-46" style="edgeStyle=none;curved=1;rounded=0;orthogonalLoop=1;jettySize=auto;html=1;entryX=0.178;entryY=0.839;entryDx=0;entryDy=0;entryPerimeter=0;fontSize=12;exitX=1;exitY=0.5;exitDx=0;exitDy=0;sketch=1;curveFitting=1;jiggle=2;startArrow=classic;startFill=1;fontFamily=Comic Sans MS;" parent="1" source="n0bD6nwZr_wSMpqqiZz7-40" target="n0bD6nwZr_wSMpqqiZz7-17" edge="1">
          <mxGeometry relative="1" as="geometry" />
        </mxCell>
        <mxCell id="n0bD6nwZr_wSMpqqiZz7-47" value="Edge Storage" style="rounded=0;whiteSpace=wrap;html=1;sketch=1;curveFitting=1;jiggle=2;fillColor=#bac8d3;strokeColor=#23445d;fontFamily=Comic Sans MS;" parent="1" vertex="1">
          <mxGeometry x="940" y="580" width="600" height="40" as="geometry" />
        </mxCell>
        <mxCell id="n0bD6nwZr_wSMpqqiZz7-48" style="edgeStyle=none;curved=1;rounded=0;orthogonalLoop=1;jettySize=auto;html=1;entryX=0.136;entryY=0.068;entryDx=0;entryDy=0;entryPerimeter=0;fontSize=12;sketch=1;curveFitting=1;jiggle=2;endArrow=classic;startFill=1;startArrow=classic;endFill=1;shape=link;fontFamily=Comic Sans MS;" parent="1" source="n0bD6nwZr_wSMpqqiZz7-43" target="n0bD6nwZr_wSMpqqiZz7-47" edge="1">
          <mxGeometry relative="1" as="geometry" />
        </mxCell>
        <mxCell id="n0bD6nwZr_wSMpqqiZz7-49" style="edgeStyle=none;curved=1;rounded=0;orthogonalLoop=1;jettySize=auto;html=1;entryX=0.136;entryY=0.068;entryDx=0;entryDy=0;entryPerimeter=0;fontSize=12;sketch=1;curveFitting=1;jiggle=2;endArrow=classic;startFill=1;startArrow=classic;endFill=1;shape=link;fontFamily=Comic Sans MS;" parent="1" edge="1">
          <mxGeometry relative="1" as="geometry">
            <mxPoint x="1242" y="497" as="sourcePoint" />
            <mxPoint x="1242" y="580" as="targetPoint" />
          </mxGeometry>
        </mxCell>
        <mxCell id="n0bD6nwZr_wSMpqqiZz7-50" style="edgeStyle=none;curved=1;rounded=0;orthogonalLoop=1;jettySize=auto;html=1;entryX=0.136;entryY=0.068;entryDx=0;entryDy=0;entryPerimeter=0;fontSize=12;sketch=1;curveFitting=1;jiggle=2;endArrow=classic;startFill=1;startArrow=classic;endFill=1;shape=link;fontFamily=Comic Sans MS;" parent="1" edge="1">
          <mxGeometry relative="1" as="geometry">
            <mxPoint x="1462" y="497" as="sourcePoint" />
            <mxPoint x="1462" y="580" as="targetPoint" />
          </mxGeometry>
        </mxCell>
        <mxCell id="n0bD6nwZr_wSMpqqiZz7-51" style="edgeStyle=none;curved=1;rounded=0;orthogonalLoop=1;jettySize=auto;html=1;entryX=0.5;entryY=1;entryDx=0;entryDy=0;fontSize=12;startSize=8;endSize=8;sketch=1;curveFitting=1;jiggle=2;fontFamily=Comic Sans MS;" parent="1" source="n0bD6nwZr_wSMpqqiZz7-52" target="n0bD6nwZr_wSMpqqiZz7-47" edge="1">
          <mxGeometry relative="1" as="geometry" />
        </mxCell>
        <mxCell id="n0bD6nwZr_wSMpqqiZz7-52" value="Cloud OSS" style="rounded=0;whiteSpace=wrap;html=1;sketch=1;curveFitting=1;jiggle=2;fillColor=#bac8d3;strokeColor=#23445d;fontFamily=Comic Sans MS;" parent="1" vertex="1">
          <mxGeometry x="940" y="650" width="600" height="40" as="geometry" />
        </mxCell>
        <mxCell id="n0bD6nwZr_wSMpqqiZz7-53" value="" style="endArrow=classic;startArrow=classic;html=1;rounded=0;fontSize=12;exitX=1;exitY=0.75;exitDx=0;exitDy=0;entryX=-0.005;entryY=0.551;entryDx=0;entryDy=0;entryPerimeter=0;sketch=1;curveFitting=1;jiggle=2;edgeStyle=entityRelationEdgeStyle;fontFamily=Comic Sans MS;" parent="1" source="n0bD6nwZr_wSMpqqiZz7-40" target="n0bD6nwZr_wSMpqqiZz7-7" edge="1">
          <mxGeometry width="50" height="50" relative="1" as="geometry">
            <mxPoint x="800" y="660" as="sourcePoint" />
            <mxPoint x="850" y="610" as="targetPoint" />
          </mxGeometry>
        </mxCell>
        <mxCell id="n0bD6nwZr_wSMpqqiZz7-54" style="edgeStyle=none;curved=1;rounded=0;orthogonalLoop=1;jettySize=auto;html=1;fontSize=12;sketch=1;curveFitting=1;jiggle=2;startArrow=classic;startFill=0;endArrow=none;endFill=1;" parent="1" source="n0bD6nwZr_wSMpqqiZz7-55" edge="1">
          <mxGeometry relative="1" as="geometry">
            <mxPoint x="811" y="487" as="targetPoint" />
          </mxGeometry>
        </mxCell>
        <mxCell id="n0bD6nwZr_wSMpqqiZz7-55" value="etcd" style="rounded=0;whiteSpace=wrap;html=1;sketch=1;curveFitting=1;jiggle=2;fillColor=#b0e3e6;strokeColor=#0e8088;" parent="1" vertex="1">
          <mxGeometry x="773" y="538" width="95" height="42" as="geometry" />
        </mxCell>
        <mxCell id="4ZXLskvtB0-m_67RsiaI-2" value="" style="shape=actor;whiteSpace=wrap;html=1;sketch=1;curveFitting=1;jiggle=2;" parent="1" vertex="1">
          <mxGeometry x="461" y="308" width="31" height="41.5" as="geometry" />
        </mxCell>
        <mxCell id="4ZXLskvtB0-m_67RsiaI-3" value="" style="endArrow=classic;html=1;rounded=0;fontSize=12;startSize=8;endSize=8;exitX=0.9;exitY=0.5;exitDx=0;exitDy=0;exitPerimeter=0;entryX=0.5;entryY=0;entryDx=0;entryDy=0;edgeStyle=orthogonalEdgeStyle;sketch=1;curveFitting=1;jiggle=2;curved=1;" parent="1" source="4ZXLskvtB0-m_67RsiaI-2" target="n0bD6nwZr_wSMpqqiZz7-17" edge="1">
          <mxGeometry width="50" height="50" relative="1" as="geometry">
            <mxPoint x="838" y="519" as="sourcePoint" />
            <mxPoint x="888" y="469" as="targetPoint" />
          </mxGeometry>
        </mxCell>
        <mxCell id="4ZXLskvtB0-m_67RsiaI-4" value="workloads" style="text;html=1;align=center;verticalAlign=middle;whiteSpace=wrap;rounded=0;fontFamily=Comic Sans MS;" parent="1" vertex="1">
          <mxGeometry x="504" y="302" width="80" height="30" as="geometry" />
        </mxCell>
      </root>
    </mxGraphModel>
  </diagram>
  <diagram id="cKDWVVgqg8krGAl66s_h" name="强化学习调度">
    <mxGraphModel dx="1954" dy="1286" grid="0" gridSize="10" guides="1" tooltips="1" connect="1" arrows="1" fold="1" page="0" pageScale="1" pageWidth="827" pageHeight="1169" math="0" shadow="0">
      <root>
        <mxCell id="0" />
        <mxCell id="1" parent="0" />
        <mxCell id="tV3G4fdEc-bREV_mUc5k-1" value="" style="rounded=0;whiteSpace=wrap;html=1;fillColor=#dae8fc;strokeColor=light-dark(#123D7A,#5C79A3);sketch=1;curveFitting=1;jiggle=2;fontFamily=Times New Roman;" vertex="1" parent="1">
          <mxGeometry x="-116" y="102" width="337" height="112" as="geometry" />
        </mxCell>
        <mxCell id="tV3G4fdEc-bREV_mUc5k-10" value="&lt;font style=&quot;font-size: 18px;&quot;&gt;意图识别模块&lt;/font&gt;" style="text;html=1;align=center;verticalAlign=middle;whiteSpace=wrap;rounded=0;fontStyle=1;sketch=1;curveFitting=1;jiggle=2;fontColor=#000066;fontFamily=Times New Roman;" vertex="1" parent="1">
          <mxGeometry x="-116" y="184" width="130" height="30" as="geometry" />
        </mxCell>
        <mxCell id="tV3G4fdEc-bREV_mUc5k-14" value="" style="rounded=0;whiteSpace=wrap;html=1;fillColor=#dae8fc;strokeColor=light-dark(#123D7A,#5C79A3);sketch=1;curveFitting=1;jiggle=2;fontFamily=Times New Roman;" vertex="1" parent="1">
          <mxGeometry x="-116" y="263" width="337" height="112" as="geometry" />
        </mxCell>
        <mxCell id="tV3G4fdEc-bREV_mUc5k-15" value="&lt;font style=&quot;font-size: 18px;&quot;&gt;MoE&lt;/font&gt;" style="text;html=1;align=center;verticalAlign=middle;whiteSpace=wrap;rounded=0;fontStyle=1;sketch=1;curveFitting=1;jiggle=2;fontColor=#000066;fontFamily=Times New Roman;" vertex="1" parent="1">
          <mxGeometry x="-116" y="343" width="73" height="30" as="geometry" />
        </mxCell>
        <mxCell id="tV3G4fdEc-bREV_mUc5k-16" value="" style="rounded=0;whiteSpace=wrap;html=1;fillColor=#dae8fc;strokeColor=light-dark(#123D7A,#5C79A3);sketch=1;curveFitting=1;jiggle=2;fontFamily=Times New Roman;" vertex="1" parent="1">
          <mxGeometry x="-322" y="102" width="159" height="176" as="geometry" />
        </mxCell>
        <mxCell id="tV3G4fdEc-bREV_mUc5k-17" value="&lt;span style=&quot;font-size: 18px;&quot;&gt;状态监控模块&lt;/span&gt;" style="text;html=1;align=center;verticalAlign=middle;whiteSpace=wrap;rounded=0;fontStyle=1;sketch=1;curveFitting=1;jiggle=2;fontColor=#000066;fontFamily=Times New Roman;" vertex="1" parent="1">
          <mxGeometry x="-320.75" y="248" width="127" height="30" as="geometry" />
        </mxCell>
        <mxCell id="tV3G4fdEc-bREV_mUc5k-26" value="" style="shape=flexArrow;endArrow=classic;html=1;rounded=0;fontSize=12;startSize=8;endSize=8;curved=1;fillColor=#d5e8d4;strokeColor=#82b366;sketch=1;curveFitting=1;jiggle=2;fontFamily=Times New Roman;" edge="1" parent="1">
          <mxGeometry width="50" height="50" relative="1" as="geometry">
            <mxPoint x="-95" y="37" as="sourcePoint" />
            <mxPoint x="-95" y="102" as="targetPoint" />
          </mxGeometry>
        </mxCell>
        <mxCell id="tV3G4fdEc-bREV_mUc5k-27" value="" style="shape=flexArrow;endArrow=classic;html=1;rounded=0;fontSize=12;startSize=8;endSize=8;curved=1;fillColor=#d5e8d4;strokeColor=#82b366;sketch=1;curveFitting=1;jiggle=2;fontFamily=Times New Roman;" edge="1" parent="1">
          <mxGeometry width="50" height="50" relative="1" as="geometry">
            <mxPoint x="60" y="37" as="sourcePoint" />
            <mxPoint x="60" y="102" as="targetPoint" />
          </mxGeometry>
        </mxCell>
        <mxCell id="tV3G4fdEc-bREV_mUc5k-28" value="" style="shape=flexArrow;endArrow=classic;html=1;rounded=0;fontSize=12;startSize=8;endSize=8;curved=1;fillColor=#d5e8d4;strokeColor=#82b366;sketch=1;curveFitting=1;jiggle=2;fontFamily=Times New Roman;" edge="1" parent="1">
          <mxGeometry width="50" height="50" relative="1" as="geometry">
            <mxPoint x="-15" y="37" as="sourcePoint" />
            <mxPoint x="-15" y="102" as="targetPoint" />
          </mxGeometry>
        </mxCell>
        <mxCell id="tV3G4fdEc-bREV_mUc5k-29" value="" style="shape=flexArrow;endArrow=classic;html=1;rounded=0;fontSize=12;startSize=8;endSize=8;curved=1;fillColor=#d5e8d4;strokeColor=#82b366;sketch=1;curveFitting=1;jiggle=2;fontFamily=Times New Roman;" edge="1" parent="1">
          <mxGeometry width="50" height="50" relative="1" as="geometry">
            <mxPoint x="205" y="37" as="sourcePoint" />
            <mxPoint x="205" y="102" as="targetPoint" />
          </mxGeometry>
        </mxCell>
        <mxCell id="tV3G4fdEc-bREV_mUc5k-30" value="" style="shape=flexArrow;endArrow=classic;html=1;rounded=0;fontSize=12;startSize=8;endSize=8;curved=1;fillColor=#d5e8d4;strokeColor=#82b366;sketch=1;curveFitting=1;jiggle=2;fontFamily=Times New Roman;" edge="1" parent="1">
          <mxGeometry width="50" height="50" relative="1" as="geometry">
            <mxPoint x="135" y="37" as="sourcePoint" />
            <mxPoint x="135" y="102" as="targetPoint" />
          </mxGeometry>
        </mxCell>
        <mxCell id="tV3G4fdEc-bREV_mUc5k-31" value="&lt;font style=&quot;font-size: 18px;&quot;&gt;&lt;b&gt;任务调度请求流（AI推理/渲染）&lt;/b&gt;&lt;/font&gt;" style="text;html=1;align=center;verticalAlign=middle;whiteSpace=wrap;rounded=0;sketch=1;curveFitting=1;jiggle=2;fontFamily=Times New Roman;" vertex="1" parent="1">
          <mxGeometry x="-77" y="-5" width="271" height="30" as="geometry" />
        </mxCell>
        <mxCell id="tV3G4fdEc-bREV_mUc5k-33" value="" style="shape=flexArrow;endArrow=classic;html=1;rounded=0;fontSize=12;startSize=8;endSize=8;curved=1;fillColor=#d5e8d4;strokeColor=#82b366;sketch=1;curveFitting=1;jiggle=2;fontFamily=Times New Roman;" edge="1" parent="1">
          <mxGeometry width="50" height="50" relative="1" as="geometry">
            <mxPoint x="47" y="377" as="sourcePoint" />
            <mxPoint x="47" y="442" as="targetPoint" />
          </mxGeometry>
        </mxCell>
        <mxCell id="tV3G4fdEc-bREV_mUc5k-34" value="&lt;font style=&quot;font-size: 18px;&quot;&gt;&lt;b&gt;最终调度决策&lt;/b&gt;&lt;/font&gt;" style="text;html=1;align=center;verticalAlign=middle;resizable=0;points=[];autosize=1;strokeColor=none;fillColor=none;fontSize=16;sketch=1;curveFitting=1;jiggle=2;fontFamily=Times New Roman;" vertex="1" parent="1">
          <mxGeometry x="64" y="400" width="126" height="34" as="geometry" />
        </mxCell>
        <mxCell id="tV3G4fdEc-bREV_mUc5k-35" value="&lt;ol&gt;&lt;li&gt;&lt;font&gt;计算资源利用率&lt;/font&gt;&lt;/li&gt;&lt;li&gt;&lt;font&gt;网络带宽延迟&lt;/font&gt;&lt;/li&gt;&lt;li&gt;&lt;font&gt;缓存状态&lt;/font&gt;&lt;/li&gt;&lt;/ol&gt;" style="text;html=1;align=left;verticalAlign=middle;whiteSpace=wrap;rounded=0;fontSize=16;fontStyle=1;sketch=1;curveFitting=1;jiggle=2;fontFamily=Times New Roman;" vertex="1" parent="1">
          <mxGeometry x="-331.5" y="125" width="164" height="115" as="geometry" />
        </mxCell>
        <mxCell id="tV3G4fdEc-bREV_mUc5k-36" value="&lt;ol&gt;&lt;li&gt;&lt;font&gt;QoS识别&lt;/font&gt;&lt;/li&gt;&lt;li&gt;&lt;font&gt;业务场景分类&lt;/font&gt;&lt;/li&gt;&lt;/ol&gt;" style="text;html=1;align=left;verticalAlign=middle;whiteSpace=wrap;rounded=0;fontSize=16;fontStyle=1;sketch=1;curveFitting=1;jiggle=2;fontFamily=Times New Roman;" vertex="1" parent="1">
          <mxGeometry x="-114" y="112" width="248" height="76" as="geometry" />
        </mxCell>
        <mxCell id="tV3G4fdEc-bREV_mUc5k-37" value="&lt;ol&gt;&lt;li&gt;&lt;font&gt;AI推理业务专家&lt;/font&gt;&lt;/li&gt;&lt;li&gt;&lt;font&gt;渲染业务专家&lt;/font&gt;&lt;/li&gt;&lt;li&gt;&lt;font&gt;批处理任务专家&lt;/font&gt;&lt;/li&gt;&lt;/ol&gt;" style="text;html=1;align=left;verticalAlign=middle;whiteSpace=wrap;rounded=0;fontSize=16;fontStyle=1;sketch=1;curveFitting=1;jiggle=2;fontFamily=Times New Roman;" vertex="1" parent="1">
          <mxGeometry x="-114" y="276" width="248" height="76" as="geometry" />
        </mxCell>
        <mxCell id="tV3G4fdEc-bREV_mUc5k-38" value="" style="shape=flexArrow;endArrow=classic;html=1;rounded=0;fontSize=12;startSize=8;endSize=8;curved=1;sketch=1;curveFitting=1;jiggle=2;exitX=1;exitY=1;exitDx=0;exitDy=0;" edge="1" parent="1">
          <mxGeometry width="50" height="50" relative="1" as="geometry">
            <mxPoint x="-163" y="352" as="sourcePoint" />
            <mxPoint x="-115" y="355" as="targetPoint" />
          </mxGeometry>
        </mxCell>
        <mxCell id="tV3G4fdEc-bREV_mUc5k-39" value="" style="rounded=0;whiteSpace=wrap;html=1;fillColor=#dae8fc;strokeColor=light-dark(#123D7A,#5C79A3);sketch=1;curveFitting=1;jiggle=2;fontFamily=Times New Roman;" vertex="1" parent="1">
          <mxGeometry x="-322" y="335" width="159" height="38" as="geometry" />
        </mxCell>
        <mxCell id="tV3G4fdEc-bREV_mUc5k-40" value="&lt;span style=&quot;font-size: 18px;&quot;&gt;状态预测器&lt;/span&gt;" style="text;html=1;align=center;verticalAlign=middle;whiteSpace=wrap;rounded=0;fontStyle=1;sketch=1;curveFitting=1;jiggle=2;fontColor=#000066;fontFamily=Times New Roman;" vertex="1" parent="1">
          <mxGeometry x="-305.25" y="343" width="111.5" height="30" as="geometry" />
        </mxCell>
        <mxCell id="tV3G4fdEc-bREV_mUc5k-42" value="" style="shape=flexArrow;endArrow=classic;html=1;rounded=0;fontSize=12;startSize=8;endSize=8;curved=1;sketch=1;curveFitting=1;jiggle=2;exitX=0.557;exitY=0.993;exitDx=0;exitDy=0;exitPerimeter=0;entryX=0.453;entryY=0.053;entryDx=0;entryDy=0;entryPerimeter=0;" edge="1" parent="1">
          <mxGeometry width="50" height="50" relative="1" as="geometry">
            <mxPoint x="-245.00099999999998" y="275.99999999999994" as="sourcePoint" />
            <mxPoint x="-244.96299999999997" y="335.2239999999999" as="targetPoint" />
          </mxGeometry>
        </mxCell>
        <mxCell id="tV3G4fdEc-bREV_mUc5k-43" value="" style="shape=flexArrow;endArrow=classic;html=1;rounded=0;fontSize=12;startSize=8;endSize=8;curved=1;fillColor=#d5e8d4;strokeColor=#82b366;sketch=1;curveFitting=1;jiggle=2;fontFamily=Times New Roman;" edge="1" parent="1">
          <mxGeometry width="50" height="50" relative="1" as="geometry">
            <mxPoint x="28" y="214" as="sourcePoint" />
            <mxPoint x="28" y="265" as="targetPoint" />
          </mxGeometry>
        </mxCell>
      </root>
    </mxGraphModel>
  </diagram>
</mxfile>
